<?xml version="1.0" standalone="no"?>
<!DOCTYPE svg PUBLIC "-//W3C//DTD SVG 20010904//EN"
 "http://www.w3.org/TR/2001/REC-SVG-20010904/DTD/svg10.dtd">
<svg version="1.0" xmlns="http://www.w3.org/2000/svg"
 width="180.000000pt" height="180.000000pt" viewBox="0 0 180.000000 180.000000"
 preserveAspectRatio="xMidYMid meet">

<g transform="translate(0.000000,180.000000) scale(0.100000,-0.100000)"
fill="#ffffff" stroke="none">
<path d="M773 1676 c-188 -46 -352 -207 -403 -396 -19 -69 -17 -215 4 -285 21
-70 65 -152 308 -567 111 -189 187 -310 199 -313 10 -4 28 -4 38 0 12 3 88
124 199 313 319 545 325 558 325 712 -1 161 -46 272 -158 386 -135 138 -329
194 -512 150z m247 -108 c237 -71 372 -319 300 -550 -11 -35 -66 -145 -122
-243 -177 -308 -293 -505 -298 -505 -5 0 -121 197 -298 505 -56 98 -111 208
-122 243 -49 157 -3 329 117 443 112 106 282 149 423 107z"/>
<path d="M795 1396 c-66 -30 -120 -91 -139 -157 -20 -66 -20 -82 0 -150 20
-67 97 -148 160 -167 100 -30 187 -9 261 63 39 38 55 63 67 104 20 68 20 84 0
150 -30 104 -135 181 -244 181 -37 0 -72 -8 -105 -24z m185 -105 c94 -67 92
-184 -3 -255 -85 -63 -227 16 -227 126 0 120 136 196 230 129z"/>
</g>
</svg>
