<?xml version="1.0" standalone="no"?>
<!DOCTYPE svg PUBLIC "-//W3C//DTD SVG 20010904//EN"
 "http://www.w3.org/TR/2001/REC-SVG-20010904/DTD/svg10.dtd">
<svg version="1.0" xmlns="http://www.w3.org/2000/svg"
 width="184.000000pt" height="184.000000pt" viewBox="0 0 184.000000 184.000000"
 preserveAspectRatio="xMidYMid meet">

<g transform="translate(0.000000,184.000000) scale(0.100000,-0.100000)"
fill="#ffffff" stroke="none">
<path d="M773 1531 c-72 -34 -132 -93 -165 -159 -19 -40 -23 -63 -23 -147 0
-92 2 -104 29 -153 17 -29 45 -67 64 -83 19 -17 33 -31 31 -33 -2 -1 -24 -11
-48 -21 -126 -55 -240 -185 -292 -331 -30 -84 -39 -292 -15 -317 16 -16 62
-17 552 -17 350 0 542 4 555 10 17 10 19 22 19 113 0 56 -7 131 -15 166 -36
150 -150 297 -284 364 l-69 35 34 33 c20 19 49 63 66 97 62 125 36 274 -64
374 -67 67 -127 92 -228 96 -77 3 -91 0 -147 -27z m233 -76 c90 -37 150 -138
141 -236 -6 -65 -24 -104 -68 -148 -43 -43 -82 -62 -145 -68 -71 -8 -134 11
-184 54 -72 62 -102 150 -80 233 39 149 193 225 336 165z m25 -571 c87 -26
149 -62 210 -123 90 -91 139 -209 139 -338 l0 -63 -475 0 -475 0 0 48 c0 226
143 420 351 476 73 20 183 20 250 0z"/>
<path d="M1284 1402 c14 -28 36 -57 48 -63 65 -33 99 -88 100 -159 0 -66 -26
-116 -84 -157 -62 -45 -66 -77 -10 -99 175 -71 256 -169 269 -325 l6 -69 -27
0 c-24 0 -26 -3 -26 -40 l0 -40 53 0 c72 0 87 17 87 97 0 144 -47 262 -138
352 -32 31 -72 63 -89 70 l-31 12 34 50 c107 159 11 385 -176 415 l-42 7 26
-51z"/>
<path d="M454 1421 c-60 -27 -114 -80 -140 -136 -42 -89 -26 -222 33 -287 9
-10 14 -20 12 -21 -2 -2 -20 -13 -40 -25 -48 -29 -132 -119 -158 -170 -32 -64
-51 -148 -51 -233 0 -96 10 -109 86 -109 53 0 54 1 54 29 0 16 3 36 6 45 5 13
-1 16 -26 16 l-33 0 6 67 c13 132 96 247 215 299 83 36 87 39 90 61 2 15 -11
31 -47 56 -28 20 -57 50 -65 66 -46 89 -19 188 68 242 15 9 41 40 57 68 l29
51 -27 0 c-16 0 -46 -9 -69 -19z"/>
</g>
</svg>
