<?xml version="1.0" standalone="no"?>
<!DOCTYPE svg PUBLIC "-//W3C//DTD SVG 20010904//EN"
 "http://www.w3.org/TR/2001/REC-SVG-20010904/DTD/svg10.dtd">
<svg version="1.0" xmlns="http://www.w3.org/2000/svg"
 width="244.000000pt" height="244.000000pt" viewBox="0 0 244.000000 244.000000"
 preserveAspectRatio="xMidYMid meet">

<g transform="translate(0.000000,244.000000) scale(0.100000,-0.100000)"
fill="#ffffff" stroke="none">
<path d="M527 1896 c-46 -17 -64 -32 -83 -67 -12 -23 -14 -108 -14 -490 0
-451 0 -462 21 -496 38 -61 50 -63 333 -63 l255 0 83 -122 c46 -68 90 -123 98
-123 8 0 52 55 98 123 l83 122 255 0 c283 0 295 2 333 63 21 34 21 45 21 498
0 443 -1 465 -20 496 -43 71 -10 68 -755 70 -543 2 -677 0 -708 -11z m1390
-80 l28 -24 0 -452 0 -452 -28 -24 -28 -24 -265 0 -264 0 -68 -104 c-37 -58
-69 -105 -72 -105 -3 0 -35 47 -72 105 l-68 104 -264 0 -265 0 -28 24 -28 24
0 452 0 452 28 24 28 24 669 0 669 0 28 -24z"/>
<path d="M923 1658 c-12 -13 -37 -55 -56 -94 l-36 -71 -90 -12 c-78 -11 -94
-16 -111 -38 -28 -36 -19 -56 57 -134 l65 -67 -15 -88 c-12 -70 -13 -94 -4
-114 20 -41 64 -38 155 10 l78 42 76 -42 c90 -48 135 -51 155 -10 9 20 8 44
-4 113 l-15 88 71 74 c39 40 71 79 71 88 0 8 -9 26 -20 40 -17 22 -33 27 -111
38 l-90 12 -39 77 c-22 43 -46 85 -55 94 -23 23 -58 20 -82 -6z m92 -146 l40
-77 90 -14 c50 -8 92 -15 94 -17 2 -2 -27 -31 -63 -66 -73 -70 -73 -71 -52
-183 8 -38 13 -71 11 -73 -2 -2 -38 15 -81 37 -42 23 -82 41 -87 41 -6 0 -45
-18 -88 -40 -43 -22 -80 -40 -82 -40 -2 0 2 37 10 82 8 45 12 91 9 103 -3 12
-33 48 -66 79 -34 32 -60 59 -58 60 2 1 44 9 93 17 l90 14 43 83 c24 46 47 81
50 77 4 -4 25 -41 47 -83z"/>
<path d="M1424 1615 c-3 -8 -3 -22 0 -30 5 -13 26 -15 128 -13 l123 3 0 25 0
25 -123 3 c-102 2 -123 0 -128 -13z"/>
<path d="M1423 1444 c-3 -9 -2 -24 4 -33 9 -14 37 -16 182 -19 184 -3 215 3
209 41 -3 22 -6 22 -196 25 -172 2 -193 1 -199 -14z"/>
<path d="M1423 1274 c-3 -9 -2 -24 4 -33 9 -14 36 -16 193 -16 157 0 184 2
193 16 6 9 7 24 4 33 -6 14 -30 16 -197 16 -167 0 -191 -2 -197 -16z"/>
<path d="M1427 1113 c-4 -3 -7 -17 -7 -29 0 -33 18 -35 214 -32 142 3 170 6
179 19 6 9 7 24 4 33 -6 14 -30 16 -195 16 -104 0 -192 -3 -195 -7z"/>
</g>
</svg>
