<?xml version="1.0" standalone="no"?>
<!DOCTYPE svg PUBLIC "-//W3C//DTD SVG 20010904//EN"
 "http://www.w3.org/TR/2001/REC-SVG-20010904/DTD/svg10.dtd">
<svg version="1.0" xmlns="http://www.w3.org/2000/svg"
 width="284.000000pt" height="284.000000pt" viewBox="0 0 284.000000 284.000000"
 preserveAspectRatio="xMidYMid meet">

<g transform="translate(0.000000,284.000000) scale(0.100000,-0.100000)"
fill="#ffffff" stroke="none">
<path d="M1040 2116 c-93 -20 -162 -75 -212 -169 -20 -36 -23 -57 -23 -152 0
-132 18 -195 106 -387 77 -167 89 -227 86 -445 -2 -154 0 -171 19 -203 28 -48
61 -58 110 -33 54 27 95 109 139 273 54 198 73 225 155 225 82 0 101 -27 155
-225 44 -164 85 -246 139 -273 49 -25 82 -15 110 33 19 32 21 49 19 203 -3
218 9 278 86 445 88 192 106 255 106 387 0 100 -2 115 -27 161 -28 53 -87 112
-136 138 -53 27 -157 40 -233 27 -71 -12 -170 -50 -201 -78 -17 -15 -19 -15
-36 0 -30 27 -128 66 -194 77 -77 12 -97 12 -168 -4z m215 -81 c48 -13 74 -29
189 -110 47 -34 75 -40 125 -26 22 6 18 9 -34 36 -32 17 -58 35 -59 40 -2 17
106 64 172 74 136 21 240 -23 294 -128 33 -63 37 -137 13 -241 -18 -78 -31
-112 -97 -253 -75 -162 -80 -184 -85 -417 -3 -113 -9 -209 -14 -214 -12 -13
-37 10 -60 55 -10 21 -36 100 -58 177 -49 174 -64 207 -114 240 -34 23 -52 27
-107 27 -55 0 -73 -5 -107 -27 -50 -33 -71 -77 -113 -233 -17 -66 -41 -141
-52 -167 -23 -53 -54 -86 -67 -72 -5 5 -11 101 -13 214 -4 199 -5 208 -35 290
-17 47 -53 135 -81 195 -86 191 -104 328 -54 425 62 122 186 162 357 115z"/>
</g>
</svg>
